<mxfile host="app.diagrams.net" modified="2023-12-19T10:32:05.923Z" agent="Mozilla/5.0 (Windows NT 10.0; Win64; x64) AppleWebKit/537.36 (KHTML, like Gecko) Chrome/120.0.0.0 Safari/537.36" etag="jFi4kyhjU4cReI6khsU8" version="22.1.11" type="device">
  <diagram name="Page-1" id="2YBvvXClWsGukQMizWep">
    <mxGraphModel dx="2284" dy="780" grid="1" gridSize="10" guides="1" tooltips="1" connect="1" arrows="1" fold="1" page="1" pageScale="1" pageWidth="850" pageHeight="1100" math="0" shadow="0">
      <root>
        <mxCell id="0" />
        <mxCell id="1" parent="0" />
        <mxCell id="dhu2EKOKSfDWz9wNjVyt-9" value=":SecurityFilterChain" style="shape=umlLifeline;perimeter=lifelinePerimeter;whiteSpace=wrap;html=1;container=1;dropTarget=0;collapsible=0;recursiveResize=0;outlineConnect=0;portConstraint=eastwest;newEdgeStyle={&quot;curved&quot;:0,&quot;rounded&quot;:0};" vertex="1" parent="1">
          <mxGeometry x="120" y="270" width="140" height="920" as="geometry" />
        </mxCell>
        <mxCell id="dhu2EKOKSfDWz9wNjVyt-38" value="" style="html=1;points=[[0,0,0,0,5],[0,1,0,0,-5],[1,0,0,0,5],[1,1,0,0,-5]];perimeter=orthogonalPerimeter;outlineConnect=0;targetShapes=umlLifeline;portConstraint=eastwest;newEdgeStyle={&quot;curved&quot;:0,&quot;rounded&quot;:0};" vertex="1" parent="dhu2EKOKSfDWz9wNjVyt-9">
          <mxGeometry x="65" y="165" width="10" height="40" as="geometry" />
        </mxCell>
        <mxCell id="dhu2EKOKSfDWz9wNjVyt-10" value=":HandlerInterceptor" style="shape=umlLifeline;perimeter=lifelinePerimeter;whiteSpace=wrap;html=1;container=1;dropTarget=0;collapsible=0;recursiveResize=0;outlineConnect=0;portConstraint=eastwest;newEdgeStyle={&quot;curved&quot;:0,&quot;rounded&quot;:0};" vertex="1" parent="1">
          <mxGeometry x="340" y="270" width="140" height="920" as="geometry" />
        </mxCell>
        <mxCell id="dhu2EKOKSfDWz9wNjVyt-56" value="" style="html=1;points=[[0,0,0,0,5],[0,1,0,0,-5],[1,0,0,0,5],[1,1,0,0,-5]];perimeter=orthogonalPerimeter;outlineConnect=0;targetShapes=umlLifeline;portConstraint=eastwest;newEdgeStyle={&quot;curved&quot;:0,&quot;rounded&quot;:0};" vertex="1" parent="dhu2EKOKSfDWz9wNjVyt-10">
          <mxGeometry x="65" y="170" width="10" height="30" as="geometry" />
        </mxCell>
        <mxCell id="dhu2EKOKSfDWz9wNjVyt-11" value=":KeycloakService" style="shape=umlLifeline;perimeter=lifelinePerimeter;whiteSpace=wrap;html=1;container=1;dropTarget=0;collapsible=0;recursiveResize=0;outlineConnect=0;portConstraint=eastwest;newEdgeStyle={&quot;curved&quot;:0,&quot;rounded&quot;:0};" vertex="1" parent="1">
          <mxGeometry x="950" y="280" width="140" height="920" as="geometry" />
        </mxCell>
        <mxCell id="dhu2EKOKSfDWz9wNjVyt-84" value="" style="html=1;points=[[0,0,0,0,5],[0,1,0,0,-5],[1,0,0,0,5],[1,1,0,0,-5]];perimeter=orthogonalPerimeter;outlineConnect=0;targetShapes=umlLifeline;portConstraint=eastwest;newEdgeStyle={&quot;curved&quot;:0,&quot;rounded&quot;:0};" vertex="1" parent="dhu2EKOKSfDWz9wNjVyt-11">
          <mxGeometry x="65" y="330" width="10" height="127" as="geometry" />
        </mxCell>
        <mxCell id="dhu2EKOKSfDWz9wNjVyt-90" value="" style="html=1;points=[[0,0,0,0,5],[0,1,0,0,-5],[1,0,0,0,5],[1,1,0,0,-5]];perimeter=orthogonalPerimeter;outlineConnect=0;targetShapes=umlLifeline;portConstraint=eastwest;newEdgeStyle={&quot;curved&quot;:0,&quot;rounded&quot;:0};" vertex="1" parent="dhu2EKOKSfDWz9wNjVyt-11">
          <mxGeometry x="70" y="410" width="10" height="30" as="geometry" />
        </mxCell>
        <mxCell id="dhu2EKOKSfDWz9wNjVyt-91" value="createUser(newAccount)" style="html=1;align=left;spacingLeft=2;endArrow=block;rounded=0;edgeStyle=orthogonalEdgeStyle;curved=0;rounded=0;" edge="1" target="dhu2EKOKSfDWz9wNjVyt-90" parent="dhu2EKOKSfDWz9wNjVyt-11" source="dhu2EKOKSfDWz9wNjVyt-84">
          <mxGeometry x="0.0133" relative="1" as="geometry">
            <mxPoint x="85" y="370" as="sourcePoint" />
            <Array as="points">
              <mxPoint x="110" y="400" />
              <mxPoint x="110" y="420" />
            </Array>
            <mxPoint as="offset" />
          </mxGeometry>
        </mxCell>
        <mxCell id="dhu2EKOKSfDWz9wNjVyt-102" value="" style="html=1;points=[[0,0,0,0,5],[0,1,0,0,-5],[1,0,0,0,5],[1,1,0,0,-5]];perimeter=orthogonalPerimeter;outlineConnect=0;targetShapes=umlLifeline;portConstraint=eastwest;newEdgeStyle={&quot;curved&quot;:0,&quot;rounded&quot;:0};" vertex="1" parent="dhu2EKOKSfDWz9wNjVyt-11">
          <mxGeometry x="65" y="570" width="10" height="20" as="geometry" />
        </mxCell>
        <mxCell id="dhu2EKOKSfDWz9wNjVyt-12" value=":AccountsController" style="shape=umlLifeline;perimeter=lifelinePerimeter;whiteSpace=wrap;html=1;container=1;dropTarget=0;collapsible=0;recursiveResize=0;outlineConnect=0;portConstraint=eastwest;newEdgeStyle={&quot;curved&quot;:0,&quot;rounded&quot;:0};" vertex="1" parent="1">
          <mxGeometry x="530" y="270" width="140" height="920" as="geometry" />
        </mxCell>
        <mxCell id="dhu2EKOKSfDWz9wNjVyt-63" value="" style="html=1;points=[[0,0,0,0,5],[0,1,0,0,-5],[1,0,0,0,5],[1,1,0,0,-5]];perimeter=orthogonalPerimeter;outlineConnect=0;targetShapes=umlLifeline;portConstraint=eastwest;newEdgeStyle={&quot;curved&quot;:0,&quot;rounded&quot;:0};" vertex="1" parent="dhu2EKOKSfDWz9wNjVyt-12">
          <mxGeometry x="65" y="190" width="10" height="310" as="geometry" />
        </mxCell>
        <mxCell id="dhu2EKOKSfDWz9wNjVyt-69" value="" style="html=1;points=[[0,0,0,0,5],[0,1,0,0,-5],[1,0,0,0,5],[1,1,0,0,-5]];perimeter=orthogonalPerimeter;outlineConnect=0;targetShapes=umlLifeline;portConstraint=eastwest;newEdgeStyle={&quot;curved&quot;:0,&quot;rounded&quot;:0};" vertex="1" parent="dhu2EKOKSfDWz9wNjVyt-12">
          <mxGeometry x="70" y="240" width="10" height="40" as="geometry" />
        </mxCell>
        <mxCell id="dhu2EKOKSfDWz9wNjVyt-70" value="isValid(newAccound)" style="html=1;align=left;spacingLeft=2;endArrow=block;rounded=0;edgeStyle=orthogonalEdgeStyle;curved=0;rounded=0;" edge="1" target="dhu2EKOKSfDWz9wNjVyt-69" parent="dhu2EKOKSfDWz9wNjVyt-12" source="dhu2EKOKSfDWz9wNjVyt-63">
          <mxGeometry x="0.5473" y="5" relative="1" as="geometry">
            <mxPoint x="75" y="368" as="sourcePoint" />
            <Array as="points">
              <mxPoint x="105" y="220" />
              <mxPoint x="105" y="260" />
            </Array>
            <mxPoint as="offset" />
          </mxGeometry>
        </mxCell>
        <mxCell id="dhu2EKOKSfDWz9wNjVyt-110" value="" style="html=1;points=[[0,0,0,0,5],[0,1,0,0,-5],[1,0,0,0,5],[1,1,0,0,-5]];perimeter=orthogonalPerimeter;outlineConnect=0;targetShapes=umlLifeline;portConstraint=eastwest;newEdgeStyle={&quot;curved&quot;:0,&quot;rounded&quot;:0};" vertex="1" parent="dhu2EKOKSfDWz9wNjVyt-12">
          <mxGeometry x="65" y="690" width="10" height="30" as="geometry" />
        </mxCell>
        <mxCell id="dhu2EKOKSfDWz9wNjVyt-13" value=":AccountsService" style="shape=umlLifeline;perimeter=lifelinePerimeter;whiteSpace=wrap;html=1;container=1;dropTarget=0;collapsible=0;recursiveResize=0;outlineConnect=0;portConstraint=eastwest;newEdgeStyle={&quot;curved&quot;:0,&quot;rounded&quot;:0};" vertex="1" parent="1">
          <mxGeometry x="720" y="270" width="140" height="920" as="geometry" />
        </mxCell>
        <mxCell id="dhu2EKOKSfDWz9wNjVyt-66" value="" style="html=1;points=[[0,0,0,0,5],[0,1,0,0,-5],[1,0,0,0,5],[1,1,0,0,-5]];perimeter=orthogonalPerimeter;outlineConnect=0;targetShapes=umlLifeline;portConstraint=eastwest;newEdgeStyle={&quot;curved&quot;:0,&quot;rounded&quot;:0};" vertex="1" parent="dhu2EKOKSfDWz9wNjVyt-13">
          <mxGeometry x="65" y="316.5" width="10" height="160" as="geometry" />
        </mxCell>
        <mxCell id="dhu2EKOKSfDWz9wNjVyt-25" value="" style="shape=umlLifeline;perimeter=lifelinePerimeter;whiteSpace=wrap;html=1;container=1;dropTarget=0;collapsible=0;recursiveResize=0;outlineConnect=0;portConstraint=eastwest;newEdgeStyle={&quot;curved&quot;:0,&quot;rounded&quot;:0};participant=umlActor;" vertex="1" parent="1">
          <mxGeometry x="30" y="280" width="20" height="760" as="geometry" />
        </mxCell>
        <mxCell id="dhu2EKOKSfDWz9wNjVyt-26" value="" style="html=1;points=[[0,0,0,0,5],[0,1,0,0,-5],[1,0,0,0,5],[1,1,0,0,-5]];perimeter=orthogonalPerimeter;outlineConnect=0;targetShapes=umlLifeline;portConstraint=eastwest;newEdgeStyle={&quot;curved&quot;:0,&quot;rounded&quot;:0};" vertex="1" parent="dhu2EKOKSfDWz9wNjVyt-25">
          <mxGeometry x="5" y="150" width="10" height="340" as="geometry" />
        </mxCell>
        <mxCell id="dhu2EKOKSfDWz9wNjVyt-104" value="" style="html=1;points=[[0,0,0,0,5],[0,1,0,0,-5],[1,0,0,0,5],[1,1,0,0,-5]];perimeter=orthogonalPerimeter;outlineConnect=0;targetShapes=umlLifeline;portConstraint=eastwest;newEdgeStyle={&quot;curved&quot;:0,&quot;rounded&quot;:0};" vertex="1" parent="dhu2EKOKSfDWz9wNjVyt-25">
          <mxGeometry x="5" y="570" width="10" height="30" as="geometry" />
        </mxCell>
        <mxCell id="dhu2EKOKSfDWz9wNjVyt-112" value="" style="html=1;points=[[0,0,0,0,5],[0,1,0,0,-5],[1,0,0,0,5],[1,1,0,0,-5]];perimeter=orthogonalPerimeter;outlineConnect=0;targetShapes=umlLifeline;portConstraint=eastwest;newEdgeStyle={&quot;curved&quot;:0,&quot;rounded&quot;:0};" vertex="1" parent="dhu2EKOKSfDWz9wNjVyt-25">
          <mxGeometry x="5" y="690" width="10" height="30" as="geometry" />
        </mxCell>
        <mxCell id="dhu2EKOKSfDWz9wNjVyt-61" style="edgeStyle=orthogonalEdgeStyle;rounded=0;orthogonalLoop=1;jettySize=auto;html=1;curved=0;exitX=1;exitY=1;exitDx=0;exitDy=-5;exitPerimeter=0;" edge="1" parent="1" source="dhu2EKOKSfDWz9wNjVyt-38" target="dhu2EKOKSfDWz9wNjVyt-56">
          <mxGeometry relative="1" as="geometry">
            <mxPoint x="395" y="450" as="targetPoint" />
            <Array as="points">
              <mxPoint x="195" y="450" />
            </Array>
          </mxGeometry>
        </mxCell>
        <mxCell id="dhu2EKOKSfDWz9wNjVyt-62" value="isPost(request)" style="edgeLabel;html=1;align=center;verticalAlign=middle;resizable=0;points=[];" vertex="1" connectable="0" parent="dhu2EKOKSfDWz9wNjVyt-61">
          <mxGeometry x="0.18" y="-1" relative="1" as="geometry">
            <mxPoint y="-16" as="offset" />
          </mxGeometry>
        </mxCell>
        <mxCell id="dhu2EKOKSfDWz9wNjVyt-64" value="addAccount(newAccount)" style="html=1;verticalAlign=bottom;endArrow=block;curved=0;rounded=0;entryX=0;entryY=0;entryDx=0;entryDy=5;exitX=1;exitY=1;exitDx=0;exitDy=-5;exitPerimeter=0;" edge="1" target="dhu2EKOKSfDWz9wNjVyt-63" parent="1" source="dhu2EKOKSfDWz9wNjVyt-56">
          <mxGeometry x="0.0133" relative="1" as="geometry">
            <mxPoint x="400" y="465" as="sourcePoint" />
            <mxPoint as="offset" />
          </mxGeometry>
        </mxCell>
        <mxCell id="dhu2EKOKSfDWz9wNjVyt-67" value="save(newAccount)" style="html=1;verticalAlign=bottom;endArrow=block;curved=0;rounded=0;entryX=0;entryY=0;entryDx=0;entryDy=5;" edge="1" target="dhu2EKOKSfDWz9wNjVyt-66" parent="1" source="dhu2EKOKSfDWz9wNjVyt-63">
          <mxGeometry relative="1" as="geometry">
            <mxPoint x="720" y="475" as="sourcePoint" />
          </mxGeometry>
        </mxCell>
        <mxCell id="dhu2EKOKSfDWz9wNjVyt-71" value="alt" style="shape=umlFrame;whiteSpace=wrap;html=1;pointerEvents=0;" vertex="1" parent="1">
          <mxGeometry x="-40" y="560" width="1300" height="450" as="geometry" />
        </mxCell>
        <mxCell id="dhu2EKOKSfDWz9wNjVyt-72" value="if true" style="text;align=center;fontStyle=1;verticalAlign=middle;spacingLeft=3;spacingRight=3;strokeColor=none;rotatable=0;points=[[0,0.5],[1,0.5]];portConstraint=eastwest;html=1;" vertex="1" parent="1">
          <mxGeometry x="-50" y="592" width="80" height="26" as="geometry" />
        </mxCell>
        <mxCell id="dhu2EKOKSfDWz9wNjVyt-85" value="checkUserByEmail(email)" style="html=1;verticalAlign=bottom;endArrow=block;curved=0;rounded=0;entryX=0;entryY=0;entryDx=0;entryDy=5;" edge="1" target="dhu2EKOKSfDWz9wNjVyt-84" parent="1" source="dhu2EKOKSfDWz9wNjVyt-66">
          <mxGeometry relative="1" as="geometry">
            <mxPoint x="940" y="608" as="sourcePoint" />
          </mxGeometry>
        </mxCell>
        <mxCell id="dhu2EKOKSfDWz9wNjVyt-92" value="savedAccount" style="html=1;verticalAlign=bottom;endArrow=open;dashed=1;endSize=8;curved=0;rounded=0;exitX=0;exitY=1;exitDx=0;exitDy=-5;exitPerimeter=0;" edge="1" parent="1" source="dhu2EKOKSfDWz9wNjVyt-84" target="dhu2EKOKSfDWz9wNjVyt-66">
          <mxGeometry x="-0.0952" y="-5" relative="1" as="geometry">
            <mxPoint x="810" y="730" as="targetPoint" />
            <mxPoint x="990" y="719.5" as="sourcePoint" />
            <mxPoint as="offset" />
          </mxGeometry>
        </mxCell>
        <mxCell id="dhu2EKOKSfDWz9wNjVyt-96" value="alt" style="shape=umlFrame;whiteSpace=wrap;html=1;pointerEvents=0;" vertex="1" parent="1">
          <mxGeometry x="-30" y="630" width="1270" height="260" as="geometry" />
        </mxCell>
        <mxCell id="dhu2EKOKSfDWz9wNjVyt-98" value="savedAccount" style="html=1;verticalAlign=bottom;endArrow=open;dashed=1;endSize=8;curved=0;rounded=0;" edge="1" parent="1" source="dhu2EKOKSfDWz9wNjVyt-66">
          <mxGeometry x="-0.0952" y="-5" relative="1" as="geometry">
            <mxPoint x="605" y="729.5" as="targetPoint" />
            <mxPoint x="795" y="729.5" as="sourcePoint" />
            <mxPoint as="offset" />
          </mxGeometry>
        </mxCell>
        <mxCell id="dhu2EKOKSfDWz9wNjVyt-100" value="savedAccount" style="html=1;verticalAlign=bottom;endArrow=open;dashed=1;endSize=8;curved=0;rounded=0;exitX=0;exitY=1;exitDx=0;exitDy=-5;exitPerimeter=0;" edge="1" parent="1">
          <mxGeometry x="0.0642" y="-5" relative="1" as="geometry">
            <mxPoint x="45" y="755" as="targetPoint" />
            <mxPoint x="590" y="755" as="sourcePoint" />
            <mxPoint as="offset" />
          </mxGeometry>
        </mxCell>
        <mxCell id="dhu2EKOKSfDWz9wNjVyt-101" value="" style="line;strokeWidth=1;fillColor=none;align=left;verticalAlign=middle;spacingTop=-1;spacingLeft=3;spacingRight=3;rotatable=0;labelPosition=right;points=[];portConstraint=eastwest;strokeColor=inherit;" vertex="1" parent="1">
          <mxGeometry x="-30" y="800" width="1270" height="8" as="geometry" />
        </mxCell>
        <mxCell id="dhu2EKOKSfDWz9wNjVyt-103" value="Conflict" style="html=1;verticalAlign=bottom;endArrow=open;dashed=1;endSize=8;curved=0;rounded=0;exitX=0;exitY=1;exitDx=0;exitDy=-5;exitPerimeter=0;" edge="1" parent="1" source="dhu2EKOKSfDWz9wNjVyt-102" target="dhu2EKOKSfDWz9wNjVyt-104">
          <mxGeometry x="0.0206" y="-5" relative="1" as="geometry">
            <mxPoint x="80" y="860" as="targetPoint" />
            <mxPoint x="980" y="850" as="sourcePoint" />
            <mxPoint as="offset" />
          </mxGeometry>
        </mxCell>
        <mxCell id="dhu2EKOKSfDWz9wNjVyt-106" value="if true" style="text;align=center;fontStyle=1;verticalAlign=middle;spacingLeft=3;spacingRight=3;strokeColor=none;rotatable=0;points=[[0,0.5],[1,0.5]];portConstraint=eastwest;html=1;" vertex="1" parent="1">
          <mxGeometry x="-50" y="660" width="80" height="26" as="geometry" />
        </mxCell>
        <mxCell id="dhu2EKOKSfDWz9wNjVyt-107" value="else" style="text;align=center;fontStyle=1;verticalAlign=middle;spacingLeft=3;spacingRight=3;strokeColor=none;rotatable=0;points=[[0,0.5],[1,0.5]];portConstraint=eastwest;html=1;" vertex="1" parent="1">
          <mxGeometry x="-50" y="800" width="80" height="26" as="geometry" />
        </mxCell>
        <mxCell id="dhu2EKOKSfDWz9wNjVyt-108" value="" style="line;strokeWidth=1;fillColor=none;align=left;verticalAlign=middle;spacingTop=-1;spacingLeft=3;spacingRight=3;rotatable=0;labelPosition=right;points=[];portConstraint=eastwest;strokeColor=inherit;" vertex="1" parent="1">
          <mxGeometry x="-40" y="920" width="1300" height="8" as="geometry" />
        </mxCell>
        <mxCell id="dhu2EKOKSfDWz9wNjVyt-109" value="else" style="text;align=center;fontStyle=1;verticalAlign=middle;spacingLeft=3;spacingRight=3;strokeColor=none;rotatable=0;points=[[0,0.5],[1,0.5]];portConstraint=eastwest;html=1;" vertex="1" parent="1">
          <mxGeometry x="-60" y="928" width="80" height="26" as="geometry" />
        </mxCell>
        <mxCell id="dhu2EKOKSfDWz9wNjVyt-111" value="Bad Request" style="html=1;verticalAlign=bottom;endArrow=open;dashed=1;endSize=8;curved=0;rounded=0;" edge="1" parent="1" source="dhu2EKOKSfDWz9wNjVyt-110" target="dhu2EKOKSfDWz9wNjVyt-112">
          <mxGeometry x="0.0727" y="-5" relative="1" as="geometry">
            <mxPoint x="86" y="970" as="targetPoint" />
            <mxPoint x="525" y="970" as="sourcePoint" />
            <mxPoint as="offset" />
          </mxGeometry>
        </mxCell>
        <mxCell id="dhu2EKOKSfDWz9wNjVyt-19" value="sendRequest" style="html=1;verticalAlign=bottom;startArrow=none;endArrow=block;startSize=8;curved=0;rounded=0;startFill=0;" edge="1" parent="1">
          <mxGeometry relative="1" as="geometry">
            <mxPoint x="45" y="440" as="sourcePoint" />
            <mxPoint x="185" y="440" as="targetPoint" />
          </mxGeometry>
        </mxCell>
      </root>
    </mxGraphModel>
  </diagram>
</mxfile>
